<svg width="48" height="48" viewBox="0 0 48 48" fill="none" xmlns="http://www.w3.org/2000/svg">
<path d="M23.9998 4.7998C26.8993 4.80148 29.7607 5.45982 32.3694 6.72541C34.978 7.99101 37.2662 9.831 39.0621 12.1073C40.8581 14.3836 42.1151 17.0371 42.739 19.8686C43.3629 22.7002 43.3373 25.6363 42.6643 28.4565C41.9913 31.2768 40.6882 33.908 38.853 36.1527C37.0177 38.3974 34.6979 40.1973 32.0676 41.4174C29.4373 42.6374 26.5649 43.2459 23.6658 43.1971C20.7667 43.1483 17.9164 42.4436 15.3286 41.1358L15.0382 40.9798L6.2902 43.1638C6.12185 43.2061 5.94631 43.2114 5.7757 43.1793C5.6051 43.1472 5.44349 43.0785 5.30202 42.9779C5.16056 42.8773 5.04261 42.7472 4.95632 42.5965C4.87003 42.4459 4.81745 42.2783 4.8022 42.1054V41.9086L4.8358 41.7094L7.0198 32.9638L6.8686 32.6758C5.77305 30.5127 5.09714 28.1617 4.8766 25.747L4.8166 24.8302L4.7998 23.9998C4.7998 18.9076 6.82266 14.0241 10.4234 10.4234C14.0241 6.82266 18.9076 4.7998 23.9998 4.7998ZM25.1998 26.3998H17.9998L17.7838 26.419C17.5071 26.4691 17.2568 26.6148 17.0766 26.8306C16.8963 27.0464 16.7976 27.3186 16.7976 27.5998C16.7976 27.881 16.8963 28.1532 17.0766 28.369C17.2568 28.5848 17.5071 28.7305 17.7838 28.7806L17.9998 28.7998H25.1998L25.4158 28.7806C25.6925 28.7305 25.9428 28.5848 26.123 28.369C26.3033 28.1532 26.402 27.881 26.402 27.5998C26.402 27.3186 26.3033 27.0464 26.123 26.8306C25.9428 26.6148 25.6925 26.4691 25.4158 26.419L25.1998 26.3998ZM29.9998 19.1998H17.9998L17.7838 19.219C17.5071 19.2691 17.2568 19.4148 17.0766 19.6306C16.8963 19.8464 16.7976 20.1186 16.7976 20.3998C16.7976 20.681 16.8963 20.9532 17.0766 21.169C17.2568 21.3848 17.5071 21.5305 17.7838 21.5806L17.9998 21.5998H29.9998L30.2158 21.5806C30.4925 21.5305 30.7428 21.3848 30.923 21.169C31.1033 20.9532 31.202 20.681 31.202 20.3998C31.202 20.1186 31.1033 19.8464 30.923 19.6306C30.7428 19.4148 30.4925 19.2691 30.2158 19.219L29.9998 19.1998Z" fill="white"/>
</svg>
