<svg width="207" height="207" viewBox="0 0 207 207" fill="none" xmlns="http://www.w3.org/2000/svg">
<path d="M135.844 152.016V109.969H77.2207C75.5051 109.969 73.8597 109.287 72.6466 108.074C71.4335 106.861 70.752 105.216 70.752 103.5C70.752 101.784 71.4335 100.139 72.6466 98.9259C73.8597 97.7128 75.5051 97.0312 77.2207 97.0312H135.844V54.9844C135.837 48.9817 133.45 43.2267 129.205 38.9821C124.961 34.7376 119.206 32.3502 113.203 32.3438H35.5781C29.5754 32.3502 23.8204 34.7376 19.5759 38.9821C15.3313 43.2267 12.9439 48.9817 12.9375 54.9844V152.016C12.9439 158.018 15.3313 163.773 19.5759 168.018C23.8204 172.262 29.5754 174.65 35.5781 174.656H113.203C119.206 174.65 124.961 172.262 129.205 168.018C133.45 163.773 135.837 158.018 135.844 152.016ZM171.976 109.969L150.677 131.271C149.515 132.494 148.877 134.123 148.899 135.809C148.92 137.496 149.6 139.108 150.793 140.301C151.986 141.494 153.597 142.173 155.284 142.195C156.971 142.216 158.6 141.578 159.823 140.416L192.166 108.073C193.379 106.86 194.06 105.215 194.06 103.5C194.06 101.785 193.379 100.14 192.166 98.9274L159.823 66.5837C158.6 65.4217 156.971 64.7835 155.284 64.8051C153.597 64.8267 151.986 65.5064 150.793 66.6993C149.6 67.8921 148.92 69.5037 148.899 71.1905C148.877 72.8773 149.515 74.5059 150.677 75.7288L171.976 97.0312H135.844V109.969H171.976Z" fill="white"/>
</svg>
