<svg width="24" height="24" viewBox="0 0 24 24" fill="none" xmlns="http://www.w3.org/2000/svg">
<path d="M12.9998 6C12.9998 5.73478 12.8945 5.48043 12.7069 5.29289C12.5194 5.10536 12.265 5 11.9998 5C11.7346 5 11.4802 5.10536 11.2927 5.29289C11.1052 5.48043 10.9998 5.73478 10.9998 6V6.56C10.4407 6.62829 9.89071 6.75773 9.35981 6.946L9.12581 6.522C8.99784 6.28967 8.78282 6.11769 8.52806 6.0439C8.27329 5.9701 7.99964 6.00053 7.76731 6.1285C7.53498 6.25647 7.363 6.47149 7.2892 6.72625C7.21541 6.98102 7.24584 7.25467 7.37381 7.487L7.57381 7.849C7.10181 8.167 6.68381 8.519 6.31681 8.877L6.14381 8.733C5.9399 8.56716 5.67889 8.48827 5.41726 8.51339C5.15562 8.53852 4.9144 8.66564 4.74577 8.86725C4.57715 9.06887 4.49468 9.32877 4.51621 9.59072C4.53773 9.85267 4.66153 10.0956 4.86081 10.267L5.03181 10.41L4.44681 11.106C4.32893 11.0424 4.19949 11.0032 4.06616 10.9906C3.93283 10.978 3.79833 10.9923 3.67064 11.0327C3.54295 11.0731 3.42467 11.1387 3.32282 11.2257C3.22098 11.3126 3.13763 11.4192 3.07774 11.539C3.01785 11.6588 2.98263 11.7893 2.97417 11.923C2.9657 12.0567 2.98418 12.1906 3.02848 12.317C3.07279 12.4434 3.14204 12.5596 3.2321 12.6587C3.32217 12.7578 3.43123 12.8378 3.55281 12.894L4.55281 13.394C4.67654 13.4559 4.81177 13.4915 4.94995 13.4984C5.08813 13.5054 5.22625 13.4836 5.35558 13.4345C5.48491 13.3853 5.60263 13.3099 5.7013 13.2129C5.79997 13.1159 5.87744 12.9995 5.92881 12.871C6.66881 11.315 7.80081 9.898 9.36681 9.113C10.1839 8.70412 11.0861 8.49408 11.9998 8.5C12.9135 8.49408 13.8157 8.70412 14.6328 9.113C16.0518 9.823 17.1638 11.087 17.8878 12.485L17.9808 12.674C18.1328 12.991 18.2798 13.296 18.6448 13.434C18.774 13.4831 18.912 13.5049 19.05 13.498C19.188 13.4912 19.3232 13.4557 19.4468 13.394L20.4468 12.894C20.5684 12.8378 20.6774 12.7578 20.7675 12.6587C20.8576 12.5596 20.9268 12.4434 20.9711 12.317C21.0154 12.1906 21.0339 12.0567 21.0255 11.923C21.017 11.7893 20.9818 11.6588 20.9219 11.539C20.862 11.4192 20.7786 11.3126 20.6768 11.2257C20.5749 11.1387 20.4567 11.0731 20.329 11.0327C20.2013 10.9923 20.0668 10.978 19.9335 10.9906C19.8001 11.0032 19.6707 11.0424 19.5528 11.106L19.4428 11.161C19.3128 10.935 19.1548 10.681 18.9678 10.41L19.1388 10.267C19.3336 10.0944 19.4534 9.85275 19.4729 9.59325C19.4924 9.33375 19.4099 9.07689 19.243 8.87721C19.0761 8.67753 18.838 8.55077 18.5792 8.52384C18.3203 8.49692 18.0612 8.57195 17.8568 8.733L17.6828 8.877C17.296 8.4972 16.8756 8.15314 16.4268 7.849L16.6268 7.487C16.7548 7.25454 16.7852 6.98076 16.7113 6.7259C16.6374 6.47104 16.4653 6.25597 16.2328 6.128C16.0003 6.00003 15.7266 5.96965 15.4717 6.04354C15.2168 6.11743 15.0018 6.28954 14.8738 6.522L14.6408 6.946C14.1095 6.758 13.5592 6.6289 12.9998 6.561V6Z" fill="white"/>
<path d="M12 18.5C12.9283 18.5 13.8185 18.1313 14.4749 17.4749C15.1313 16.8185 15.5 15.9283 15.5 15C15.5 14.0717 15.1313 13.1815 14.4749 12.5251C13.8185 11.8687 12.9283 11.5 12 11.5C11.0717 11.5 10.1815 11.8687 9.52513 12.5251C8.86875 13.1815 8.5 14.0717 8.5 15C8.5 15.9283 8.86875 16.8185 9.52513 17.4749C10.1815 18.1313 11.0717 18.5 12 18.5Z" fill="white"/>
</svg>
