<svg width="29" height="29" viewBox="0 0 29 29" fill="none" xmlns="http://www.w3.org/2000/svg">
<path d="M15.2165 28.1034L15.2032 28.1059L15.1174 28.1482L15.0933 28.153L15.0763 28.1482L14.9905 28.1059C14.9777 28.1018 14.968 28.1038 14.9615 28.1119L14.9567 28.124L14.9362 28.6412L14.9422 28.6653L14.9543 28.681L15.08 28.7704L15.0981 28.7753L15.1126 28.7704L15.2383 28.681L15.2528 28.6617L15.2576 28.6412L15.237 28.1252C15.2338 28.1123 15.227 28.1051 15.2165 28.1034ZM15.5367 27.9669L15.521 27.9693L15.2975 28.0817L15.2854 28.0938L15.2818 28.1071L15.3035 28.6267L15.3095 28.6412L15.3192 28.6496L15.5621 28.762C15.5774 28.766 15.5891 28.7628 15.5971 28.7523L15.602 28.7354L15.5609 27.9935C15.5569 27.979 15.5488 27.9701 15.5367 27.9669ZM14.6728 27.9693C14.6674 27.9661 14.6611 27.965 14.655 27.9664C14.6489 27.9677 14.6436 27.9714 14.6401 27.9766L14.6329 27.9935L14.5918 28.7354C14.5926 28.7499 14.5994 28.7596 14.6123 28.7644L14.6305 28.762L14.8733 28.6496L14.8854 28.6399L14.8903 28.6267L14.9108 28.1071L14.9072 28.0926L14.8951 28.0805L14.6728 27.9693Z" fill="white"/>
<path d="M20.5418 4.83325C21.8782 4.83325 22.9041 5.85188 23.6641 6.94784L23.9215 7.33571L24.1571 7.72238C24.232 7.84885 24.3037 7.9729 24.3722 8.09454C25.3232 9.79467 26.1509 12.0144 26.6982 14.2075C27.242 16.3837 27.5429 18.6566 27.3507 20.4437C27.1574 22.2381 26.233 24.1666 24.1668 24.1666C22.3132 24.1666 20.8523 23.1758 19.6657 22.2079L18.3245 21.0829C17.2092 20.1694 15.9888 19.3333 14.5001 19.3333C13.0114 19.3333 11.7898 20.1694 10.6769 21.0829L9.33569 22.2067C8.14669 23.1758 6.68582 24.1666 4.83344 24.1666C2.76598 24.1666 1.84161 22.2381 1.64948 20.4437C1.45857 18.6554 1.75823 16.3837 2.30198 14.2075C2.84936 12.0144 3.67707 9.79467 4.62803 8.09454L4.84311 7.72117L5.07873 7.33571L5.33611 6.94784C6.09615 5.85188 7.12203 4.83325 8.45844 4.83325C9.07469 4.83325 9.68732 4.98309 10.2891 5.1595L11.0056 5.37942C11.124 5.41567 11.2416 5.45031 11.3584 5.48334C12.4037 5.783 13.473 6.04159 14.5001 6.04159C15.5272 6.04159 16.5966 5.783 17.6418 5.48334L18.7112 5.16071C19.3129 4.98309 19.9255 4.83325 20.5418 4.83325ZM10.2709 9.66659C9.46977 9.66659 8.70141 9.98485 8.13489 10.5514C7.56837 11.1179 7.25011 11.8862 7.25011 12.6874C7.25011 13.4886 7.56837 14.257 8.13489 14.8235C8.70141 15.39 9.46977 15.7083 10.2709 15.7083C11.0721 15.7083 11.8405 15.39 12.407 14.8235C12.9735 14.257 13.2918 13.4886 13.2918 12.6874C13.2918 11.8862 12.9735 11.1179 12.407 10.5514C11.8405 9.98485 11.0721 9.66659 10.2709 9.66659ZM18.7293 9.66659C18.4088 9.66659 18.1015 9.79389 17.8749 10.0205C17.6482 10.2471 17.5209 10.5544 17.5209 10.8749V11.4791H16.9168C16.5963 11.4791 16.289 11.6064 16.0624 11.833C15.8357 12.0596 15.7084 12.3669 15.7084 12.6874C15.7084 13.0079 15.8357 13.3152 16.0624 13.5418C16.289 13.7684 16.5963 13.8958 16.9168 13.8958H17.5209V14.4999C17.5209 14.8204 17.6482 15.1277 17.8749 15.3543C18.1015 15.5809 18.4088 15.7083 18.7293 15.7083C19.0497 15.7083 19.3571 15.5809 19.5837 15.3543C19.8103 15.1277 19.9376 14.8204 19.9376 14.4999V13.8958H20.5418C20.8622 13.8958 21.1696 13.7684 21.3962 13.5418C21.6228 13.3152 21.7501 13.0079 21.7501 12.6874C21.7501 12.3669 21.6228 12.0596 21.3962 11.833C21.1696 11.6064 20.8622 11.4791 20.5418 11.4791H19.9376V10.8749C19.9376 10.5544 19.8103 10.2471 19.5837 10.0205C19.3571 9.79389 19.0497 9.66659 18.7293 9.66659ZM10.2709 12.0833C10.4312 12.0833 10.5849 12.1469 10.6982 12.2602C10.8115 12.3735 10.8751 12.5272 10.8751 12.6874C10.8751 12.8477 10.8115 13.0013 10.6982 13.1146C10.5849 13.2279 10.4312 13.2916 10.2709 13.2916C10.1107 13.2916 9.95704 13.2279 9.84373 13.1146C9.73043 13.0013 9.66678 12.8477 9.66678 12.6874C9.66678 12.5272 9.73043 12.3735 9.84373 12.2602C9.95704 12.1469 10.1107 12.0833 10.2709 12.0833Z" fill="white"/>
</svg>
