<svg width="61" height="61" viewBox="0 0 61 61" fill="none" xmlns="http://www.w3.org/2000/svg">
<path fill-rule="evenodd" clip-rule="evenodd" d="M27.1119 15.5906L25.836 14.6883C24.0152 13.3998 21.8395 12.708 19.6089 12.7083H18.0534C17.024 12.7083 15.987 12.7719 15.0186 13.115C8.96186 15.2653 4.79607 23.1165 5.09853 40.9285C5.15953 44.5173 5.99828 48.4823 9.23636 50.0302C10.3409 50.5612 11.5513 50.8358 12.7769 50.8333C14.1545 50.8559 15.5078 50.4694 16.6656 49.7226C17.7077 49.0415 18.6227 48.157 19.5377 47.2725C20.6662 46.1795 21.7947 45.0866 23.1571 44.38C24.6411 43.6097 26.2888 43.2079 27.9608 43.2083H33.0416C34.714 43.2083 36.361 43.6099 37.8454 44.3775C39.2077 45.0866 40.3362 46.1795 41.4672 47.2725C42.3822 48.157 43.2972 49.0415 44.3342 49.7226C45.3255 50.3733 46.609 50.8333 48.2255 50.8333C49.4511 50.8358 50.6615 50.5612 51.7661 50.0302C55.0042 48.4823 55.8429 44.5148 55.9039 40.9285C56.2064 23.1165 52.0406 15.2653 45.9838 13.1175C45.0129 12.7719 43.9708 12.7083 42.9465 12.7083H41.391C39.1601 12.7087 36.9844 13.4014 35.1639 14.6908L33.888 15.5906C32.897 16.2908 31.7134 16.6668 30.4999 16.6668C29.2865 16.6668 28.1029 16.2908 27.1119 15.5906ZM42.5729 22.875C43.0784 22.875 43.5633 23.0758 43.9208 23.4333C44.2783 23.7908 44.4791 24.2757 44.4791 24.7813C44.4791 25.2868 44.2783 25.7717 43.9208 26.1292C43.5633 26.4867 43.0784 26.6875 42.5729 26.6875C42.0673 26.6875 41.5824 26.4867 41.2249 26.1292C40.8674 25.7717 40.6666 25.2868 40.6666 24.7813C40.6666 24.2757 40.8674 23.7908 41.2249 23.4333C41.5824 23.0758 42.0673 22.875 42.5729 22.875ZM19.0624 23.5104C19.568 23.5104 20.0529 23.7113 20.4104 24.0687C20.7679 24.4262 20.9687 24.9111 20.9687 25.4167V27.3229H22.8749C23.3805 27.3229 23.8654 27.5238 24.2229 27.8812C24.5804 28.2387 24.7812 28.7236 24.7812 29.2292C24.7812 29.7347 24.5804 30.2196 24.2229 30.5771C23.8654 30.9346 23.3805 31.1354 22.8749 31.1354H20.9687V33.0417C20.9687 33.5472 20.7679 34.0321 20.4104 34.3896C20.0529 34.7471 19.568 34.9479 19.0624 34.9479C18.5569 34.9479 18.072 34.7471 17.7145 34.3896C17.357 34.0321 17.1562 33.5472 17.1562 33.0417V31.1354H15.2499C14.7444 31.1354 14.2595 30.9346 13.902 30.5771C13.5445 30.2196 13.3437 29.7347 13.3437 29.2292C13.3437 28.7236 13.5445 28.2387 13.902 27.8812C14.2595 27.5238 14.7444 27.3229 15.2499 27.3229H17.1562V25.4167C17.1562 24.9111 17.357 24.4262 17.7145 24.0687C18.072 23.7113 18.5569 23.5104 19.0624 23.5104ZM48.2916 28.5938C48.2916 29.0993 48.0908 29.5842 47.7333 29.9417C47.3758 30.2992 46.8909 30.5 46.3854 30.5C45.8798 30.5 45.3949 30.2992 45.0374 29.9417C44.6799 29.5842 44.4791 29.0993 44.4791 28.5938C44.4791 28.0882 44.6799 27.6033 45.0374 27.2458C45.3949 26.8883 45.8798 26.6875 46.3854 26.6875C46.8909 26.6875 47.3758 26.8883 47.7333 27.2458C48.0908 27.6033 48.2916 28.0882 48.2916 28.5938ZM38.7604 30.5C39.2659 30.5 39.7508 30.2992 40.1083 29.9417C40.4658 29.5842 40.6666 29.0993 40.6666 28.5938C40.6666 28.0882 40.4658 27.6033 40.1083 27.2458C39.7508 26.8883 39.2659 26.6875 38.7604 26.6875C38.2548 26.6875 37.7699 26.8883 37.4124 27.2458C37.0549 27.6033 36.8541 28.0882 36.8541 28.5938C36.8541 29.0993 37.0549 29.5842 37.4124 29.9417C37.7699 30.2992 38.2548 30.5 38.7604 30.5ZM44.4791 32.4063C44.4791 31.9007 44.2783 31.4158 43.9208 31.0583C43.5633 30.7008 43.0784 30.5 42.5729 30.5C42.0673 30.5 41.5824 30.7008 41.2249 31.0583C40.8674 31.4158 40.6666 31.9007 40.6666 32.4063C40.6666 32.9118 40.8674 33.3967 41.2249 33.7542C41.5824 34.1117 42.0673 34.3125 42.5729 34.3125C43.0784 34.3125 43.5633 34.1117 43.9208 33.7542C44.2783 33.3967 44.4791 32.9118 44.4791 32.4063Z" fill="url(#paint0_linear_15_2)"/>
<defs>
<linearGradient id="paint0_linear_15_2" x1="30.5012" y1="12.7083" x2="30.5012" y2="50.8343" gradientUnits="userSpaceOnUse">
<stop stop-color="white"/>
</linearGradient>
</defs>
</svg>
