<svg width="55" height="55" viewBox="0 0 55 55" fill="none" xmlns="http://www.w3.org/2000/svg">
<path d="M29.12 5.25446L49.745 25.8795C51.1887 27.3232 50.1666 29.7913 48.1248 29.7913H45.8331V43.5413C45.8331 45.3647 45.1088 47.1134 43.8195 48.4027C42.5302 49.692 40.7815 50.4163 38.9581 50.4163H36.6664V34.3747C36.6665 32.6211 35.9965 30.9337 34.7935 29.6578C33.5905 28.3819 31.9454 27.614 30.1948 27.5111L29.7914 27.4997H25.2081C23.3847 27.4997 21.6361 28.224 20.3467 29.5133C19.0574 30.8026 18.3331 32.5513 18.3331 34.3747V50.4163H16.0414C14.2181 50.4163 12.4694 49.692 11.1801 48.4027C9.89077 47.1134 9.16644 45.3647 9.16644 43.5413V29.7913H6.87477C4.83519 29.7913 3.81082 27.3232 5.25457 25.8795L25.8796 5.25446C26.3093 4.82484 26.8921 4.5835 27.4998 4.5835C28.1074 4.5835 28.6902 4.82484 29.12 5.25446ZM29.7914 32.083C30.3992 32.083 30.9821 32.3245 31.4119 32.7542C31.8417 33.184 32.0831 33.7669 32.0831 34.3747V50.4163H22.9164V34.3747C22.9165 33.8134 23.1226 33.2716 23.4956 32.8522C23.8686 32.4327 24.3825 32.1647 24.94 32.099L25.2081 32.083H29.7914Z" fill="white"/>
</svg>
