<svg width="52" height="52" viewBox="0 0 52 52" fill="none" xmlns="http://www.w3.org/2000/svg">
<path d="M17.0625 26C19.4329 26 21.7062 25.0584 23.3823 23.3823C25.0584 21.7062 26 19.4329 26 17.0625C26 14.6921 25.0584 12.4188 23.3823 10.7427C21.7062 9.06663 19.4329 8.125 17.0625 8.125C14.6921 8.125 12.4188 9.06663 10.7427 10.7427C9.06663 12.4188 8.125 14.6921 8.125 17.0625C8.125 19.4329 9.06663 21.7062 10.7427 23.3823C12.4188 25.0584 14.6921 26 17.0625 26ZM37.375 26C39.0989 26 40.7522 25.3152 41.9712 24.0962C43.1902 22.8772 43.875 21.2239 43.875 19.5C43.875 17.7761 43.1902 16.1228 41.9712 14.9038C40.7522 13.6848 39.0989 13 37.375 13C35.6511 13 33.9978 13.6848 32.7788 14.9038C31.5598 16.1228 30.875 17.7761 30.875 19.5C30.875 21.2239 31.5598 22.8772 32.7788 24.0962C33.9978 25.3152 35.6511 26 37.375 26ZM8.125 29.25C6.83207 29.25 5.59209 29.7636 4.67785 30.6779C3.76361 31.5921 3.25 32.8321 3.25 34.125V34.3687C3.25 34.3687 3.25 43.875 17.0625 43.875C30.875 43.875 30.875 34.3687 30.875 34.3687V34.125C30.875 32.8321 30.3614 31.5921 29.4471 30.6779C28.5329 29.7636 27.2929 29.25 26 29.25H8.125ZM37.375 40.625C35.009 40.625 33.137 40.3032 31.6534 39.7914C32.3554 38.6539 32.7584 37.557 32.9859 36.6714C33.1516 36.0349 33.2566 35.3842 33.2995 34.7279L33.306 34.554L33.3076 34.4858V34.125C33.3111 32.3259 32.6483 30.5893 31.447 29.25H44.8386C45.3522 29.2498 45.8608 29.3508 46.3353 29.5471C46.8099 29.7435 47.2411 30.0315 47.6043 30.3946C47.9675 30.7576 48.2556 31.1887 48.4522 31.6632C48.6488 32.1376 48.75 32.6462 48.75 33.1598C48.75 33.1598 48.75 40.625 37.375 40.625Z" fill="white"/>
</svg>
