<svg width="36" height="36" viewBox="0 0 36 36" fill="none" xmlns="http://www.w3.org/2000/svg">
<path d="M18.7545 10.5155L18.6555 10.4555C17.5335 9.77304 16.5465 9.17154 15.7005 8.86854C15.2341 8.6893 14.7356 8.6091 14.2365 8.63304C13.7112 8.67314 13.209 8.86607 12.792 9.18804C11.9235 9.83904 11.5485 10.7975 11.343 11.858C11.1435 12.8855 11.067 14.2235 10.9725 15.8525L10.968 15.9365C10.911 16.9115 10.875 17.876 10.875 18.7505C10.875 19.625 10.911 20.591 10.968 21.566L10.9725 21.6485C11.067 23.2775 11.1435 24.6155 11.343 25.6415C11.5485 26.7035 11.9235 27.6605 12.792 28.313C13.221 28.6355 13.7025 28.8275 14.2365 28.868C14.7495 28.9055 15.2415 28.7975 15.7005 28.6325C16.5465 28.3295 17.5335 27.728 18.6555 27.047L18.7545 26.987C19.3935 26.597 20.0205 26.1965 20.58 25.802C21.2652 25.3146 21.9331 24.8033 22.5825 24.269L22.6575 24.2075C23.8035 23.273 24.7755 22.4795 25.4475 21.6995C26.1795 20.8445 26.625 19.9265 26.625 18.7505C26.625 17.5745 26.1795 16.655 25.446 15.8015C24.7755 15.0215 23.8035 14.2265 22.659 13.2935L22.584 13.232C21.903 12.677 21.219 12.146 20.58 11.699C19.9841 11.2849 19.3753 10.8897 18.7545 10.514" fill="white"/>
</svg>
