<svg width="25" height="25" viewBox="0 0 25 25" fill="none" xmlns="http://www.w3.org/2000/svg">
<path d="M23.0277 5.48227C23.0277 5.23902 22.8304 5.04202 22.5874 5.04202L22.5859 5.04227V5.04102H11.1164V5.04452C11.0004 5.04511 10.8894 5.09145 10.8074 5.17347C10.7255 5.25549 10.6792 5.36656 10.6787 5.48252L10.6784 7.06802C10.6782 7.07552 10.6762 7.08227 10.6762 7.08977C10.6762 7.33277 10.8732 7.52977 11.1164 7.53002H22.5859L22.5874 7.53027C22.8307 7.53027 23.0277 7.33302 23.0277 7.09002V5.48227ZM23.0277 9.20752C23.0277 8.96427 22.8304 8.76727 22.5874 8.76727L22.5859 8.76752V8.76627H11.1164V8.76977C11.0004 8.77036 10.8894 8.8167 10.8074 8.89872C10.7255 8.98074 10.6792 9.09181 10.6787 9.20777L10.6784 10.7935C10.6782 10.801 10.6762 10.8078 10.6762 10.8153C10.6762 11.0583 10.8732 11.2553 11.1164 11.2555H22.5859H22.5874C22.8307 11.2555 23.0277 11.0583 23.0277 10.8153V9.20752ZM8.18716 5.48127C8.18719 5.42344 8.17582 5.36618 8.15371 5.31275C8.1316 5.25932 8.09917 5.21078 8.05828 5.16989C8.0174 5.129 7.96885 5.09657 7.91542 5.07446C7.86199 5.05235 7.80473 5.04098 7.74691 5.04102C7.73616 5.04102 7.72591 5.04352 7.71541 5.04427H2.44441C2.43391 5.04352 2.42366 5.04102 2.41291 5.04102C2.16966 5.04102 1.97266 5.23827 1.97266 5.48127V10.815C1.97266 11.058 2.16966 11.2553 2.41291 11.2553H7.74691C7.99016 11.2553 8.18716 11.058 8.18716 10.815V5.48127ZM23.0277 14.186C23.0277 13.9428 22.8304 13.7458 22.5874 13.7458L22.5859 13.746V13.7448H11.1164V13.7483C11.0004 13.7489 10.8894 13.7952 10.8074 13.8772C10.7255 13.9592 10.6792 14.0703 10.6787 14.1863L10.6784 15.772C10.6782 15.7795 10.6762 15.7863 10.6762 15.7938C10.6762 16.0368 10.8732 16.234 11.1164 16.234H22.5859H22.5874C22.8307 16.234 23.0277 16.0368 23.0277 15.7938V14.186ZM23.0277 17.9113C23.0277 17.668 22.8304 17.471 22.5874 17.471L22.5859 17.4713V17.47H11.1164V17.4735C11.0004 17.4741 10.8894 17.5205 10.8074 17.6025C10.7255 17.6845 10.6792 17.7956 10.6787 17.9115L10.6784 19.497C10.6782 19.5045 10.6762 19.5113 10.6762 19.5188C10.6762 19.7618 10.8732 19.959 11.1164 19.959H22.5859H22.5874C22.8307 19.959 23.0277 19.7618 23.0277 19.5188V17.9113ZM8.18716 14.185C8.18716 13.9418 7.99016 13.7445 7.74691 13.7445C7.73616 13.7445 7.72591 13.747 7.71541 13.7478H2.44441C2.43391 13.747 2.42366 13.7445 2.41291 13.7445C2.16966 13.7445 1.97266 13.9418 1.97266 14.185V19.5188C1.97266 19.7618 2.16991 19.959 2.41291 19.959H7.74691C7.99016 19.959 8.18716 19.7618 8.18716 19.5188V14.185Z" fill="white"/>
</svg>
