<svg width="12" height="12" viewBox="0 0 12 12" fill="none" xmlns="http://www.w3.org/2000/svg">
<path d="M11.855 0.145129C11.7875 0.0779655 11.7023 0.0314641 11.6093 0.0110922C11.5163 -0.00927975 11.4194 -0.00267533 11.33 0.030129L0.33 4.03013C0.235134 4.06611 0.15346 4.1301 0.0958259 4.21361C0.0381915 4.29711 0.00732422 4.39617 0.00732422 4.49763C0.00732422 4.59909 0.0381915 4.69815 0.0958259 4.78165C0.15346 4.86515 0.235134 4.92915 0.33 4.96513L4.625 6.68013L7.795 3.50013L8.5 4.20513L5.315 7.39013L7.035 11.6851C7.07205 11.7782 7.13619 11.8579 7.21909 11.9141C7.302 11.9703 7.39986 12.0002 7.5 12.0001C7.60104 11.9981 7.69909 11.9654 7.7812 11.9065C7.86332 11.8476 7.92566 11.7652 7.96 11.6701L11.96 0.670129C11.9941 0.581667 12.0023 0.485344 11.9837 0.392391C11.9651 0.299437 11.9205 0.213684 11.855 0.145129Z" fill="black"/>
</svg>
