<svg width="113" height="113" viewBox="0 0 113 113" fill="none" xmlns="http://www.w3.org/2000/svg">
<path d="M7.0625 56.5C7.0625 29.1964 29.1964 7.0625 56.5 7.0625C83.8036 7.0625 105.938 29.1964 105.938 56.5C105.938 83.8036 83.8036 105.938 56.5 105.938C29.1964 105.938 7.0625 83.8036 7.0625 56.5ZM42.375 52.9688C44.2481 52.9688 46.0445 52.2247 47.3689 50.9002C48.6934 49.5757 49.4375 47.7793 49.4375 45.9062C49.4375 44.0332 48.6934 42.2368 47.3689 40.9123C46.0445 39.5878 44.2481 38.8438 42.375 38.8438C40.5019 38.8438 38.7055 39.5878 37.3811 40.9123C36.0566 42.2368 35.3125 44.0332 35.3125 45.9062C35.3125 47.7793 36.0566 49.5757 37.3811 50.9002C38.7055 52.2247 40.5019 52.9688 42.375 52.9688ZM77.6875 45.9062C77.6875 44.0332 76.9434 42.2368 75.6189 40.9123C74.2945 39.5878 72.4981 38.8438 70.625 38.8438C68.7519 38.8438 66.9555 39.5878 65.6311 40.9123C64.3066 42.2368 63.5625 44.0332 63.5625 45.9062C63.5625 47.7793 64.3066 49.5757 65.6311 50.9002C66.9555 52.2247 68.7519 52.9688 70.625 52.9688C72.4981 52.9688 74.2945 52.2247 75.6189 50.9002C76.9434 49.5757 77.6875 47.7793 77.6875 45.9062ZM33.734 67.4681C32.8971 67.887 32.2607 68.6211 31.9647 69.5091C31.6687 70.397 31.7374 71.3661 32.1556 72.2035V72.2141L32.1626 72.2211L32.1732 72.2423L32.2015 72.2953C32.3122 72.5052 32.43 72.7113 32.5546 72.9133C32.7841 73.2911 33.1196 73.8031 33.5645 74.3964C34.773 75.9928 36.1764 77.4317 37.742 78.6798C41.6334 81.7943 47.7001 84.75 56.5 84.75C65.2999 84.75 71.3666 81.7943 75.258 78.6763C76.8232 77.4304 78.2266 75.9938 79.4355 74.3999C79.9391 73.7316 80.3946 73.0282 80.7985 72.2953L80.8268 72.2423L80.8374 72.2211L80.8444 72.2105V72.2035C81.2333 71.3721 81.2833 70.4219 80.9836 69.5544C80.684 68.6868 80.0583 67.97 79.2392 67.5559C78.4201 67.1417 77.4719 67.0628 76.5956 67.3358C75.7193 67.6088 74.9837 68.2122 74.5447 69.0183L74.5306 69.043L74.4105 69.2478C74.2183 69.5634 74.0096 69.8686 73.7855 70.1624C73.1922 70.9569 72.2317 72.0552 70.8475 73.164C68.1178 75.3463 63.5872 77.6875 56.5 77.6875C49.4128 77.6875 44.8822 75.3463 42.1525 73.1675C41.0523 72.2916 40.0654 71.2821 39.2145 70.1624C38.9439 69.8053 38.6962 69.4314 38.473 69.043L38.4588 69.0183C38.0355 68.1884 37.3014 67.5595 36.4164 67.2685C35.5314 66.9774 34.5673 67.0479 33.734 67.4645" fill="white"/>
</svg>
