<svg width="24" height="24" viewBox="0 0 24 24" fill="none" xmlns="http://www.w3.org/2000/svg">
<path d="M9.99978 3H13.9998C14.5498 3 14.9998 2.55 14.9998 2C14.9998 1.45 14.5498 1 13.9998 1H9.99978C9.44978 1 8.99978 1.45 8.99978 2C8.99978 2.55 9.44978 3 9.99978 3ZM19.0298 7.39L19.7798 6.64C19.9647 6.45395 20.0685 6.2023 20.0685 5.94C20.0685 5.6777 19.9647 5.42605 19.7798 5.24L19.7698 5.23C19.5837 5.04509 19.3321 4.94131 19.0698 4.94131C18.8075 4.94131 18.5558 5.04509 18.3698 5.23L17.6198 5.98C16.0272 4.69818 14.0441 3.99953 11.9998 4C7.19978 4 3.11978 7.96 2.99978 12.76C2.96772 13.9619 3.17682 15.1581 3.61473 16.2779C4.05265 17.3977 4.7105 18.4184 5.54944 19.2797C6.38838 20.141 7.39141 20.8255 8.49928 21.2927C9.60715 21.7599 10.7974 22.0004 11.9998 22C13.6941 22.0009 15.3542 21.5232 16.7889 20.622C18.2236 19.7207 19.3746 18.4325 20.1092 16.9057C20.8439 15.379 21.1323 13.6758 20.9413 11.9923C20.7504 10.3087 20.0877 8.71341 19.0298 7.39ZM12.9998 13C12.9998 13.55 12.5498 14 11.9998 14C11.4498 14 10.9998 13.55 10.9998 13V9C10.9998 8.45 11.4498 8 11.9998 8C12.5498 8 12.9998 8.45 12.9998 9V13Z" fill="white"/>
</svg>
